<svg width="16" height="25" viewBox="0 0 16 25" fill="none" xmlns="http://www.w3.org/2000/svg">
<path d="M14.4201 15.7302H5.11537L5.58256 14.7786L13.3451 14.7646C13.6076 14.7646 13.8326 14.5771 13.8794 14.3177L14.9544 8.3005C14.9826 8.14269 14.9404 7.98019 14.8372 7.85675C14.7863 7.796 14.7227 7.74707 14.6509 7.71334C14.5792 7.67961 14.5009 7.6619 14.4216 7.66144L4.54662 7.62863L4.46224 7.23175C4.40912 6.97863 4.18099 6.79425 3.92162 6.79425H1.50756C1.36127 6.79425 1.22098 6.85236 1.11754 6.9558C1.0141 7.05924 0.955994 7.19953 0.955994 7.34581C0.955994 7.4921 1.0141 7.63239 1.11754 7.73583C1.22098 7.83926 1.36127 7.89738 1.50756 7.89738H3.47474L3.84349 9.6505L4.75131 14.0458L3.58256 15.9536C3.52186 16.0355 3.4853 16.1328 3.47702 16.2344C3.46874 16.336 3.48906 16.438 3.53568 16.5286C3.62943 16.7146 3.81849 16.8318 4.02787 16.8318H5.00912C4.79993 17.1096 4.68694 17.448 4.68724 17.7958C4.68724 18.6802 5.40599 19.3989 6.29037 19.3989C7.17474 19.3989 7.89349 18.6802 7.89349 17.7958C7.89349 17.4474 7.77787 17.1083 7.57162 16.8318H10.0888C9.87962 17.1096 9.76662 17.448 9.76693 17.7958C9.76693 18.6802 10.4857 19.3989 11.3701 19.3989C12.2544 19.3989 12.9732 18.6802 12.9732 17.7958C12.9732 17.4474 12.8576 17.1083 12.6513 16.8318H14.4216C14.7247 16.8318 14.9732 16.5849 14.9732 16.2802C14.9723 16.1341 14.9136 15.9942 14.81 15.8912C14.7064 15.7881 14.5662 15.7303 14.4201 15.7302V15.7302ZM4.77631 8.71613L13.7732 8.74581L12.8919 13.6802L5.82474 13.6927L4.77631 8.71613ZM6.29037 18.2896C6.01849 18.2896 5.79662 18.0677 5.79662 17.7958C5.79662 17.5239 6.01849 17.3021 6.29037 17.3021C6.56224 17.3021 6.78412 17.5239 6.78412 17.7958C6.78412 17.9268 6.7321 18.0524 6.6395 18.1449C6.54691 18.2375 6.42132 18.2896 6.29037 18.2896V18.2896ZM11.3701 18.2896C11.0982 18.2896 10.8763 18.0677 10.8763 17.7958C10.8763 17.5239 11.0982 17.3021 11.3701 17.3021C11.6419 17.3021 11.8638 17.5239 11.8638 17.7958C11.8638 17.9268 11.8118 18.0524 11.7192 18.1449C11.6266 18.2375 11.501 18.2896 11.3701 18.2896V18.2896Z" fill="white"/>
</svg>
